ffmpeg started on 2026-03-28 at 16:14:49
Report written to "D:\Convert\FFMetrics\reports\psnr_report-6.txt"
Log level: 32
Command line:
ffmpeg -hide_banner -nostdin -r 24000/1001 -i "F:\\\xc0\xed\xe8\xec\xe5\\\xce\xed\xe3\xee\xe8\xed\xe3\xe8\\!_40_\xce\xf1\xe5\xed\xfc_2025\\JamClub\\\xcc\xeb\xe0\xe4\xf8\xe0\xff \xf1\xe5\xf1\xf2\xf0\xe0 \xec\xee\xe5\xe3\xee \xe4\xf0\xf3\xe3\xe0 \xe4\xee\xf1\xe0\xe6\xe4\xe0\xe5\xf2\\JamClub_Tomodachi_no_Imouto_ga_Ore_ni_dake_Uzai_10_1080p_HEVC.mkv" -r 24000/1001 -i "F:\\\xc0\xed\xe8\xec\xe5\\\xce\xed\xe3\xee\xe8\xed\xe3\xe8\\!_40_\xce\xf1\xe5\xed\xfc_2025\\JamClub\\\xcc\xeb\xe0\xe4\xf8\xe0\xff \xf1\xe5\xf1\xf2\xf0\xe0 \xec\xee\xe5\xe3\xee \xe4\xf0\xf3\xe3\xe0 \xe4\xee\xf1\xe0\xe6\xe4\xe0\xe5\xf2\\JamClub_Tomodachi_no_Imouto_ga_Ore_ni_dake_Uzai_10_1080p.mp4" -lavfi "[0:v]settb=AVTB,setpts=PTS-STARTPTS,format=pix_fmts=yuv420p10le,fps=24000/1001,scale=1920:1080:flags=lanczos:param0=3:out_range=limited:out_color_matrix=bt709:out_chroma_loc=left,setsar=1/1,setdar=(1920/1080)*(1/1),colorspace=format=yuv420p10:range=tv:primaries=bt709:trc=bt709:space=bt709:fast=0[main];[1:v]settb=AVTB,setpts=PTS-STARTPTS,format=pix_fmts=yuv420p,fps=24000/1001,scale=1920:1080:flags=lanczos:param0=3:out_range=limited:out_color_matrix=bt709:out_chroma_loc=left,setsar=1/1,setdar=(1920/1080)*(1/1),colorspace=format=yuv420p:range=tv:primaries=bt709:trc=bt709:space=bt709:fast=0[ref];[main][ref]psnr=eof_action=endall:stats_file='D\\:/Convert/FFMetrics/logs/psnr_logfile-6.txt'" -f null -
Input #0, matroska,webm, from 'F:\Аниме\Онгоинги\!_40_Осень_2025\JamClub\Младшая сестра моего друга досаждает\JamClub_Tomodachi_no_Imouto_ga_Ore_ni_dake_Uzai_10_1080p_HEVC.mkv':
  Metadata:
    COMPATIBLE_BRANDS: isomiso2avc1mp41
    MAJOR_BRAND     : isom
    MINOR_VERSION   : 512
    ENCODER         : Lavf61.7.100
  Duration: 00:23:49.49, start: -0.021000, bitrate: 942 kb/s
  Stream #0:0: Video: hevc (Main 10), yuv420p10le(tv, bt709, progressive), 1920x1080 [SAR 1:1 DAR 16:9], 23.98 fps, 23.98 tbr, 1k tbn (default)
      Metadata:
        HANDLER_NAME    : VideoHandler
        VENDOR_ID       : [0][0][0][0]
        ENCODER         : Lavc61.19.100 libx265
        BPS             : 746198
        DURATION        : 00:23:49.386708333
        NUMBER_OF_FRAMES: 34271
        NUMBER_OF_BYTES : 133325702
        _STATISTICS_WRITING_APP: mkvpropedit v94.0 ('Initiate') 64-bit
        _STATISTICS_WRITING_DATE_UTC: 2026-03-28 11:23:09
        _STATISTICS_TAGS: BPS DURATION NUMBER_OF_FRAMES NUMBER_OF_BYTES
  Stream #0:1(eng): Audio: aac (LC), 48000 Hz, stereo, fltp (default)
      Metadata:
        HANDLER_NAME    : SoundHandler
        VENDOR_ID       : [0][0][0][0]
        ENCODER         : Lavc61.19.100 aac
        BPS             : 191815
        DURATION        : 00:23:49.464000000
        NUMBER_OF_FRAMES: 67007
        NUMBER_OF_BYTES : 34274154
        _STATISTICS_WRITING_APP: mkvpropedit v94.0 ('Initiate') 64-bit
        _STATISTICS_WRITING_DATE_UTC: 2026-03-28 11:23:09
        _STATISTICS_TAGS: BPS DURATION NUMBER_OF_FRAMES NUMBER_OF_BYTES
Input #1, mov,mp4,m4a,3gp,3g2,mj2, from 'F:\Аниме\Онгоинги\!_40_Осень_2025\JamClub\Младшая сестра моего друга досаждает\JamClub_Tomodachi_no_Imouto_ga_Ore_ni_dake_Uzai_10_1080p.mp4':
  Metadata:
    major_brand     : isom
    minor_version   : 512
    compatible_brands: isomiso2avc1mp41
    encoder         : Lavf60.16.100
  Duration: 00:23:49.46, start: 0.000000, bitrate: 3283 kb/s
  Stream #1:0[0x1](und): Video: h264 (High) (avc1 / 0x31637661), yuv420p(tv, bt709, progressive), 1920x1080 [SAR 1:1 DAR 16:9], 3085 kb/s, 23.98 fps, 23.98 tbr, 90k tbn (default)
      Metadata:
        handler_name    : VideoHandler
        vendor_id       : [0][0][0][0]
  Stream #1:1[0x2](eng): Audio: aac (LC) (mp4a / 0x6134706D), 48000 Hz, stereo, fltp, 191 kb/s (default)
      Metadata:
        handler_name    : SoundHandler
        vendor_id       : [0][0][0][0]
Stream mapping:
  Stream #0:0 (hevc) -> settb:default
  Stream #1:0 (h264) -> settb:default
  psnr:default -> Stream #0:0 (wrapped_avframe)
  Stream #0:1 -> #0:1 (aac (native) -> pcm_s16le (native))
Output #0, null, to 'pipe:':
  Metadata:
    COMPATIBLE_BRANDS: isomiso2avc1mp41
    MAJOR_BRAND     : isom
    MINOR_VERSION   : 512
    encoder         : Lavf61.7.100
  Stream #0:0: Video: wrapped_avframe, yuv420p10le(tv, bt709, progressive), 1920x1080 [SAR 1:1 DAR 16:9], q=2-31, 200 kb/s, 23.98 fps, 23.98 tbn
      Metadata:
        encoder         : Lavc61.19.100 wrapped_avframe
  Stream #0:1(eng): Audio: pcm_s16le, 48000 Hz, stereo, s16, 1536 kb/s (default)
      Metadata:
        HANDLER_NAME    : SoundHandler
        VENDOR_ID       : [0][0][0][0]
        _STATISTICS_TAGS: BPS DURATION NUMBER_OF_FRAMES NUMBER_OF_BYTES
        BPS             : 191815
        DURATION        : 00:23:49.464000000
        NUMBER_OF_FRAMES: 67007
        NUMBER_OF_BYTES : 34274154
        _STATISTICS_WRITING_APP: mkvpropedit v94.0 ('Initiate') 64-bit
        _STATISTICS_WRITING_DATE_UTC: 2026-03-28 11:23:09
        encoder         : Lavc61.19.100 pcm_s16le
frame=  110 fps=0.0 q=-0.0 size=N/A time=00:00:04.58 bitrate=N/A speed=8.86x    frame=  254 fps=247 q=-0.0 size=N/A time=00:00:10.59 bitrate=N/A speed=10.3x    frame=  411 fps=267 q=-0.0 size=N/A time=00:00:17.14 bitrate=N/A speed=11.1x    frame=  605 fps=295 q=-0.0 size=N/A time=00:00:25.23 bitrate=N/A speed=12.3x    frame=  815 fps=316 q=-0.0 size=N/A time=00:00:33.99 bitrate=N/A speed=13.2x    frame= 1015 fps=329 q=-0.0 size=N/A time=00:00:42.33 bitrate=N/A speed=13.7x    frame= 1223 fps=340 q=-0.0 size=N/A time=00:00:51.00 bitrate=N/A speed=14.2x    frame= 1431 fps=347 q=-0.0 size=N/A time=00:00:59.68 bitrate=N/A speed=14.5x    frame= 1628 fps=351 q=-0.0 size=N/A time=00:01:07.90 bitrate=N/A speed=14.6x    frame= 1825 fps=355 q=-0.0 size=N/A time=00:01:16.11 bitrate=N/A speed=14.8x    frame= 2026 fps=357 q=-0.0 size=N/A time=00:01:24.50 bitrate=N/A speed=14.9x    frame= 2231 fps=361 q=-0.0 size=N/A time=00:01:33.05 bitrate=N/A speed=  15x    frame= 2439 fps=364 q=-0.0 size=N/A time=00:01:41.72 bitrate=N/A speed=15.2x    frame= 2630 fps=364 q=-0.0 size=N/A time=00:01:49.69 bitrate=N/A speed=15.2x    frame= 2837 fps=367 q=-0.0 size=N/A time=00:01:58.32 bitrate=N/A speed=15.3x    frame= 3039 fps=369 q=-0.0 size=N/A time=00:02:06.75 bitrate=N/A speed=15.4x    frame= 3250 fps=371 q=-0.0 size=N/A time=00:02:15.55 bitrate=N/A speed=15.5x    frame= 3455 fps=372 q=-0.0 size=N/A time=00:02:24.10 bitrate=N/A speed=15.5x    frame= 3658 fps=373 q=-0.0 size=N/A time=00:02:32.56 bitrate=N/A speed=15.6x    frame= 3861 fps=374 q=-0.0 size=N/A time=00:02:41.03 bitrate=N/A speed=15.6x    frame= 4060 fps=375 q=-0.0 size=N/A time=00:02:49.33 bitrate=N/A speed=15.6x    frame= 4231 fps=372 q=-0.0 size=N/A time=00:02:56.46 bitrate=N/A speed=15.5x    frame= 4362 fps=367 q=-0.0 size=N/A time=00:03:01.93 bitrate=N/A speed=15.3x    frame= 4531 fps=366 q=-0.0 size=N/A time=00:03:08.98 bitrate=N/A speed=15.3x    frame= 4697 fps=364 q=-0.0 size=N/A time=00:03:15.90 bitrate=N/A speed=15.2x    frame= 4877 fps=363 q=-0.0 size=N/A time=00:03:23.41 bitrate=N/A speed=15.2x    frame= 5037 fps=362 q=-0.0 size=N/A time=00:03:30.08 bitrate=N/A speed=15.1x    frame= 5211 fps=361 q=-0.0 size=N/A time=00:03:37.34 bitrate=N/A speed=  15x    frame= 5384 fps=360 q=-0.0 size=N/A time=00:03:44.55 bitrate=N/A speed=  15x    frame= 5553 fps=359 q=-0.0 size=N/A time=00:03:51.60 bitrate=N/A speed=  15x    frame= 5681 fps=355 q=-0.0 size=N/A time=00:03:56.94 bitrate=N/A speed=14.8x    frame= 5817 fps=352 q=-0.0 size=N/A time=00:04:02.61 bitrate=N/A speed=14.7x    frame= 5981 fps=351 q=-0.0 size=N/A time=00:04:09.45 bitrate=N/A speed=14.6x    frame= 6138 fps=350 q=-0.0 size=N/A time=00:04:16.00 bitrate=N/A speed=14.6x    frame= 6291 fps=348 q=-0.0 size=N/A time=00:04:22.38 bitrate=N/A speed=14.5x    frame= 6484 fps=349 q=-0.0 size=N/A time=00:04:30.43 bitrate=N/A speed=14.6x    frame= 6691 fps=350 q=-0.0 size=N/A time=00:04:39.07 bitrate=N/A speed=14.6x    frame= 6882 fps=351 q=-0.0 size=N/A time=00:04:47.03 bitrate=N/A speed=14.6x    frame= 7082 fps=352 q=-0.0 size=N/A time=00:04:55.37 bitrate=N/A speed=14.7x    frame= 7296 fps=353 q=-0.0 size=N/A time=00:05:04.30 bitrate=N/A speed=14.7x    frame= 7486 fps=354 q=-0.0 size=N/A time=00:05:12.22 bitrate=N/A speed=14.8x    frame= 7690 fps=355 q=-0.0 size=N/A time=00:05:20.73 bitrate=N/A speed=14.8x    frame= 7901 fps=356 q=-0.0 size=N/A time=00:05:29.53 bitrate=N/A speed=14.8x    frame= 8096 fps=356 q=-0.0 size=N/A time=00:05:37.67 bitrate=N/A speed=14.9x    frame= 8297 fps=357 q=-0.0 size=N/A time=00:05:46.05 bitrate=N/A speed=14.9x    frame= 8497 fps=358 q=-0.0 size=N/A time=00:05:54.39 bitrate=N/A speed=14.9x    frame= 8696 fps=358 q=-0.0 size=N/A time=00:06:02.69 bitrate=N/A speed=14.9x    frame= 8904 fps=359 q=-0.0 size=N/A time=00:06:11.37 bitrate=N/A speed=  15x    frame= 9112 fps=360 q=-0.0 size=N/A time=00:06:20.04 bitrate=N/A speed=  15x    frame= 9304 fps=360 q=-0.0 size=N/A time=00:06:28.05 bitrate=N/A speed=  15x    frame= 9499 fps=361 q=-0.0 size=N/A time=00:06:36.18 bitrate=N/A speed=  15x    frame= 9672 fps=360 q=-0.0 size=N/A time=00:06:43.40 bitrate=N/A speed=  15x    frame= 9863 fps=360 q=-0.0 size=N/A time=00:06:51.36 bitrate=N/A speed=  15x    frame=10070 fps=361 q=-0.0 size=N/A time=00:07:00.00 bitrate=N/A speed=15.1x    frame=10273 fps=362 q=-0.0 size=N/A time=00:07:08.46 bitrate=N/A speed=15.1x    frame=10476 fps=362 q=-0.0 size=N/A time=00:07:16.93 bitrate=N/A speed=15.1x    frame=10670 fps=362 q=-0.0 size=N/A time=00:07:25.02 bitrate=N/A speed=15.1x    frame=10868 fps=363 q=-0.0 size=N/A time=00:07:33.28 bitrate=N/A speed=15.1x    frame=11076 fps=364 q=-0.0 size=N/A time=00:07:41.96 bitrate=N/A speed=15.2x    frame=11282 fps=364 q=-0.0 size=N/A time=00:07:50.55 bitrate=N/A speed=15.2x    frame=11484 fps=365 q=-0.0 size=N/A time=00:07:58.97 bitrate=N/A speed=15.2x    frame=11688 fps=365 q=-0.0 size=N/A time=00:08:07.48 bitrate=N/A speed=15.2x    frame=11889 fps=366 q=-0.0 size=N/A time=00:08:15.87 bitrate=N/A speed=15.2x    frame=12101 fps=366 q=-0.0 size=N/A time=00:08:24.71 bitrate=N/A speed=15.3x    frame=12290 fps=366 q=-0.0 size=N/A time=00:08:32.59 bitrate=N/A speed=15.3x    frame=12476 fps=366 q=-0.0 size=N/A time=00:08:40.35 bitrate=N/A speed=15.3x    frame=12677 fps=366 q=-0.0 size=N/A time=00:08:48.73 bitrate=N/A speed=15.3x    frame=12881 fps=367 q=-0.0 size=N/A time=00:08:57.24 bitrate=N/A speed=15.3x    frame=13077 fps=367 q=-0.0 size=N/A time=00:09:05.41 bitrate=N/A speed=15.3x    frame=13281 fps=368 q=-0.0 size=N/A time=00:09:13.92 bitrate=N/A speed=15.3x    frame=13468 fps=367 q=-0.0 size=N/A time=00:09:21.72 bitrate=N/A speed=15.3x    frame=13638 fps=367 q=-0.0 size=N/A time=00:09:28.81 bitrate=N/A speed=15.3x    frame=13822 fps=367 q=-0.0 size=N/A time=00:09:36.49 bitrate=N/A speed=15.3x    frame=14008 fps=367 q=-0.0 size=N/A time=00:09:44.25 bitrate=N/A speed=15.3x    frame=14205 fps=367 q=-0.0 size=N/A time=00:09:52.46 bitrate=N/A speed=15.3x    frame=14404 fps=367 q=-0.0 size=N/A time=00:10:00.76 bitrate=N/A speed=15.3x    frame=14601 fps=367 q=-0.0 size=N/A time=00:10:08.98 bitrate=N/A speed=15.3x    frame=14792 fps=367 q=-0.0 size=N/A time=00:10:16.94 bitrate=N/A speed=15.3x    frame=14995 fps=368 q=-0.0 size=N/A time=00:10:25.41 bitrate=N/A speed=15.3x    frame=15202 fps=368 q=-0.0 size=N/A time=00:10:34.05 bitrate=N/A speed=15.4x    frame=15406 fps=369 q=-0.0 size=N/A time=00:10:42.55 bitrate=N/A speed=15.4x    frame=15616 fps=369 q=-0.0 size=N/A time=00:10:51.31 bitrate=N/A speed=15.4x    frame=15824 fps=369 q=-0.0 size=N/A time=00:10:59.99 bitrate=N/A speed=15.4x    frame=16031 fps=370 q=-0.0 size=N/A time=00:11:08.62 bitrate=N/A speed=15.4x    frame=16245 fps=370 q=-0.0 size=N/A time=00:11:17.55 bitrate=N/A speed=15.4x    frame=16462 fps=371 q=-0.0 size=N/A time=00:11:26.60 bitrate=N/A speed=15.5x    frame=16641 fps=370 q=-0.0 size=N/A time=00:11:34.06 bitrate=N/A speed=15.5x    frame=16825 fps=370 q=-0.0 size=N/A time=00:11:41.74 bitrate=N/A speed=15.4x    frame=17024 fps=371 q=-0.0 size=N/A time=00:11:50.04 bitrate=N/A speed=15.5x    frame=17220 fps=371 q=-0.0 size=N/A time=00:11:58.21 bitrate=N/A speed=15.5x    frame=17413 fps=371 q=-0.0 size=N/A time=00:12:06.26 bitrate=N/A speed=15.5x    frame=17606 fps=371 q=-0.0 size=N/A time=00:12:14.31 bitrate=N/A speed=15.5x    frame=17821 fps=371 q=-0.0 size=N/A time=00:12:23.28 bitrate=N/A speed=15.5x    frame=18017 fps=371 q=-0.0 size=N/A time=00:12:31.45 bitrate=N/A speed=15.5x    frame=18215 fps=371 q=-0.0 size=N/A time=00:12:39.71 bitrate=N/A speed=15.5x    frame=18403 fps=371 q=-0.0 size=N/A time=00:12:47.55 bitrate=N/A speed=15.5x    frame=18578 fps=371 q=-0.0 size=N/A time=00:12:54.85 bitrate=N/A speed=15.5x    frame=18789 fps=371 q=-0.0 size=N/A time=00:13:03.65 bitrate=N/A speed=15.5x    frame=18999 fps=372 q=-0.0 size=N/A time=00:13:12.41 bitrate=N/A speed=15.5x    frame=19203 fps=372 q=-0.0 size=N/A time=00:13:20.92 bitrate=N/A speed=15.5x    frame=19416 fps=372 q=-0.0 size=N/A time=00:13:29.80 bitrate=N/A speed=15.5x    frame=19627 fps=373 q=-0.0 size=N/A time=00:13:38.60 bitrate=N/A speed=15.5x    frame=19835 fps=373 q=-0.0 size=N/A time=00:13:47.28 bitrate=N/A speed=15.6x    frame=20049 fps=373 q=-0.0 size=N/A time=00:13:56.21 bitrate=N/A speed=15.6x    frame=20245 fps=373 q=-0.0 size=N/A time=00:14:04.38 bitrate=N/A speed=15.6x    frame=20455 fps=374 q=-0.0 size=N/A time=00:14:13.14 bitrate=N/A speed=15.6x    frame=20653 fps=374 q=-0.0 size=N/A time=00:14:21.40 bitrate=N/A speed=15.6x    frame=20851 fps=374 q=-0.0 size=N/A time=00:14:29.66 bitrate=N/A speed=15.6x    frame=21059 fps=374 q=-0.0 size=N/A time=00:14:38.33 bitrate=N/A speed=15.6x    frame=21264 fps=374 q=-0.0 size=N/A time=00:14:46.88 bitrate=N/A speed=15.6x    frame=21453 fps=374 q=-0.0 size=N/A time=00:14:54.76 bitrate=N/A speed=15.6x    frame=21646 fps=374 q=-0.0 size=N/A time=00:15:02.81 bitrate=N/A speed=15.6x    frame=21841 fps=374 q=-0.0 size=N/A time=00:15:10.95 bitrate=N/A speed=15.6x    frame=22039 fps=375 q=-0.0 size=N/A time=00:15:19.20 bitrate=N/A speed=15.6x    frame=22239 fps=375 q=-0.0 size=N/A time=00:15:27.55 bitrate=N/A speed=15.6x    frame=22426 fps=374 q=-0.0 size=N/A time=00:15:35.35 bitrate=N/A speed=15.6x    frame=22638 fps=375 q=-0.0 size=N/A time=00:15:44.19 bitrate=N/A speed=15.6x    frame=22838 fps=375 q=-0.0 size=N/A time=00:15:52.53 bitrate=N/A speed=15.6x    frame=23046 fps=375 q=-0.0 size=N/A time=00:16:01.21 bitrate=N/A speed=15.6x    frame=23238 fps=375 q=-0.0 size=N/A time=00:16:09.21 bitrate=N/A speed=15.6x    frame=23401 fps=375 q=-0.0 size=N/A time=00:16:16.01 bitrate=N/A speed=15.6x    frame=23604 fps=375 q=-0.0 size=N/A time=00:16:24.48 bitrate=N/A speed=15.6x    frame=23802 fps=375 q=-0.0 size=N/A time=00:16:32.74 bitrate=N/A speed=15.6x    frame=23981 fps=375 q=-0.0 size=N/A time=00:16:40.20 bitrate=N/A speed=15.6x    frame=24174 fps=375 q=-0.0 size=N/A time=00:16:48.25 bitrate=N/A speed=15.6x    frame=24349 fps=374 q=-0.0 size=N/A time=00:16:55.55 bitrate=N/A speed=15.6x    frame=24519 fps=374 q=-0.0 size=N/A time=00:17:02.64 bitrate=N/A speed=15.6x    frame=24710 fps=374 q=-0.0 size=N/A time=00:17:10.61 bitrate=N/A speed=15.6x    frame=24904 fps=374 q=-0.0 size=N/A time=00:17:18.70 bitrate=N/A speed=15.6x    frame=25098 fps=374 q=-0.0 size=N/A time=00:17:26.79 bitrate=N/A speed=15.6x    frame=25292 fps=374 q=-0.0 size=N/A time=00:17:34.88 bitrate=N/A speed=15.6x    frame=25497 fps=374 q=-0.0 size=N/A time=00:17:43.43 bitrate=N/A speed=15.6x    frame=25689 fps=374 q=-0.0 size=N/A time=00:17:51.44 bitrate=N/A speed=15.6x    frame=25869 fps=374 q=-0.0 size=N/A time=00:17:58.95 bitrate=N/A speed=15.6x    frame=26055 fps=374 q=-0.0 size=N/A time=00:18:06.71 bitrate=N/A speed=15.6x    frame=26245 fps=374 q=-0.0 size=N/A time=00:18:14.63 bitrate=N/A speed=15.6x    frame=26435 fps=374 q=-0.0 size=N/A time=00:18:22.55 bitrate=N/A speed=15.6x    frame=26621 fps=374 q=-0.0 size=N/A time=00:18:30.31 bitrate=N/A speed=15.6x    frame=26820 fps=374 q=-0.0 size=N/A time=00:18:38.61 bitrate=N/A speed=15.6x    frame=27008 fps=374 q=-0.0 size=N/A time=00:18:46.45 bitrate=N/A speed=15.6x    frame=27210 fps=374 q=-0.0 size=N/A time=00:18:54.88 bitrate=N/A speed=15.6x    frame=27405 fps=374 q=-0.0 size=N/A time=00:19:03.01 bitrate=N/A speed=15.6x    frame=27608 fps=374 q=-0.0 size=N/A time=00:19:11.48 bitrate=N/A speed=15.6x    frame=27782 fps=374 q=-0.0 size=N/A time=00:19:18.74 bitrate=N/A speed=15.6x    frame=27990 fps=374 q=-0.0 size=N/A time=00:19:27.41 bitrate=N/A speed=15.6x    frame=28186 fps=374 q=-0.0 size=N/A time=00:19:35.59 bitrate=N/A speed=15.6x    frame=28386 fps=374 q=-0.0 size=N/A time=00:19:43.93 bitrate=N/A speed=15.6x    frame=28594 fps=374 q=-0.0 size=N/A time=00:19:52.60 bitrate=N/A speed=15.6x    frame=28803 fps=375 q=-0.0 size=N/A time=00:20:01.32 bitrate=N/A speed=15.6x    frame=28999 fps=375 q=-0.0 size=N/A time=00:20:09.49 bitrate=N/A speed=15.6x    frame=29200 fps=375 q=-0.0 size=N/A time=00:20:17.88 bitrate=N/A speed=15.6x    frame=29409 fps=375 q=-0.0 size=N/A time=00:20:26.60 bitrate=N/A speed=15.6x    frame=29601 fps=375 q=-0.0 size=N/A time=00:20:34.60 bitrate=N/A speed=15.6x    frame=29797 fps=375 q=-0.0 size=N/A time=00:20:42.78 bitrate=N/A speed=15.6x    frame=29984 fps=375 q=-0.0 size=N/A time=00:20:50.58 bitrate=N/A speed=15.6x    frame=30193 fps=375 q=-0.0 size=N/A time=00:20:59.29 bitrate=N/A speed=15.6x    frame=30378 fps=375 q=-0.0 size=N/A time=00:21:07.01 bitrate=N/A speed=15.6x    frame=30559 fps=375 q=-0.0 size=N/A time=00:21:14.56 bitrate=N/A speed=15.6x    frame=30761 fps=375 q=-0.0 size=N/A time=00:21:22.99 bitrate=N/A speed=15.6x    frame=30968 fps=375 q=-0.0 size=N/A time=00:21:31.62 bitrate=N/A speed=15.6x    frame=31175 fps=375 q=-0.0 size=N/A time=00:21:40.25 bitrate=N/A speed=15.6x    frame=31367 fps=375 q=-0.0 size=N/A time=00:21:48.26 bitrate=N/A speed=15.6x    frame=31569 fps=375 q=-0.0 size=N/A time=00:21:56.69 bitrate=N/A speed=15.7x    frame=31754 fps=375 q=-0.0 size=N/A time=00:22:04.40 bitrate=N/A speed=15.6x    frame=31939 fps=375 q=-0.0 size=N/A time=00:22:12.12 bitrate=N/A speed=15.6x    frame=32116 fps=375 q=-0.0 size=N/A time=00:22:19.50 bitrate=N/A speed=15.6x    frame=32292 fps=375 q=-0.0 size=N/A time=00:22:26.84 bitrate=N/A speed=15.6x    frame=32476 fps=375 q=-0.0 size=N/A time=00:22:34.51 bitrate=N/A speed=15.6x    frame=32654 fps=374 q=-0.0 size=N/A time=00:22:41.94 bitrate=N/A speed=15.6x    frame=32833 fps=374 q=-0.0 size=N/A time=00:22:49.40 bitrate=N/A speed=15.6x    frame=32996 fps=374 q=-0.0 size=N/A time=00:22:56.20 bitrate=N/A speed=15.6x    frame=33180 fps=374 q=-0.0 size=N/A time=00:23:03.88 bitrate=N/A speed=15.6x    frame=33350 fps=374 q=-0.0 size=N/A time=00:23:10.97 bitrate=N/A speed=15.6x    frame=33531 fps=373 q=-0.0 size=N/A time=00:23:18.52 bitrate=N/A speed=15.6x    frame=33720 fps=373 q=-0.0 size=N/A time=00:23:26.40 bitrate=N/A speed=15.6x    frame=33903 fps=373 q=-0.0 size=N/A time=00:23:34.03 bitrate=N/A speed=15.6x    frame=34078 fps=373 q=-0.0 size=N/A time=00:23:41.33 bitrate=N/A speed=15.6x    frame=34227 fps=373 q=-0.0 size=N/A time=00:23:47.55 bitrate=N/A speed=15.5x    [Parsed_psnr_16 @ 000002865c4d3b00] PSNR y:49.055874 u:51.754831 v:50.919178 average:49.687141 min:37.690439 max:inf
[out#0/null @ 00000286509dae00] video:14726KiB audio:268028KiB subtitle:0KiB other streams:0KiB global headers:0KiB muxing overhead: unknown
frame=34271 fps=373 q=-0.0 Lsize=N/A time=00:23:49.38 bitrate=N/A speed=15.5x    
